<svg width="200" height="52" viewBox="0 0 200 52" fill="none" xmlns="http://www.w3.org/2000/svg">
<g id="Loopcloud color inv">
<path d="M47.4588 44.1952V19.561H51.5028V40.6035H62.0926V44.1952H47.4519H47.4588ZM66.0201 43.263C64.6218 42.5022 63.5457 41.4192 62.7849 40.0278C62.0241 38.6295 61.6402 37.0188 61.6402 35.1887C61.6402 33.3586 62.0241 31.7821 62.7849 30.3839C63.5457 28.9856 64.6287 27.9026 66.0201 27.1281C67.4184 26.3536 69.0154 25.9697 70.8249 25.9697C72.6344 25.9697 74.2315 26.3536 75.6297 27.1281C77.028 27.9026 78.1041 28.9856 78.8649 30.3839C79.6258 31.7821 80.0096 33.3792 80.0096 35.1887C80.0096 36.9982 79.6258 38.6295 78.8649 40.0278C78.1041 41.426 77.0211 42.5022 75.6297 43.263C74.2315 44.0238 72.6344 44.4076 70.8249 44.4076C69.0154 44.4076 67.4184 44.0238 66.0201 43.263ZM74.677 39.5C75.6503 38.3828 76.1369 36.9502 76.1369 35.1887C76.1369 33.4271 75.6503 31.9946 74.677 30.8774C73.7037 29.767 72.4219 29.2049 70.8249 29.2049C69.2279 29.2049 67.953 29.7601 66.9865 30.8774C66.0269 31.9946 65.5471 33.4271 65.5471 35.1887C65.5471 36.9502 66.0269 38.3828 66.9865 39.5C67.9461 40.6172 69.2279 41.1724 70.8249 41.1724C72.4219 41.1724 73.7037 40.6172 74.677 39.5ZM85.6164 43.263C84.2181 42.5022 83.142 41.4192 82.3812 40.0278C81.6203 38.6295 81.2365 37.0188 81.2365 35.1887C81.2365 33.3586 81.6135 31.7821 82.3812 30.3839C83.142 28.9856 84.225 27.9026 85.6164 27.1281C87.0146 26.3536 88.6117 25.9697 90.4212 25.9697C92.2307 25.9697 93.8278 26.3536 95.226 27.1281C96.6243 27.9026 97.7004 28.9856 98.4612 30.3839C99.222 31.7821 99.6059 33.3792 99.6059 35.1887C99.6059 36.9982 99.222 38.6295 98.4612 40.0278C97.7004 41.426 96.6174 42.5022 95.226 43.263C93.8278 44.0238 92.2307 44.4076 90.4212 44.4076C88.6117 44.4076 87.0146 44.0238 85.6164 43.263ZM94.2733 39.5C95.2466 38.3828 95.7332 36.9502 95.7332 35.1887C95.7332 33.4271 95.2466 31.9946 94.2733 30.8774C93.3 29.767 92.0182 29.2049 90.4212 29.2049C88.8242 29.2049 87.5493 29.7601 86.5828 30.8774C85.6232 31.9946 85.1366 33.4271 85.1366 35.1887C85.1366 36.9502 85.6164 38.3828 86.5828 39.5C87.5424 40.6172 88.8242 41.1724 90.4212 41.1724C92.0182 41.1724 93.3 40.6172 94.2733 39.5ZM115.014 27.0801C116.303 27.8204 117.31 28.8896 118.044 30.281C118.77 31.6793 119.134 33.3106 119.134 35.1887C119.134 37.0667 118.77 38.6295 118.044 40.0278C117.317 41.426 116.31 42.5022 115.014 43.263C113.726 44.0238 112.259 44.4076 110.614 44.4076C109.277 44.4076 108.112 44.1609 107.132 43.6674C106.152 43.1739 105.363 42.509 104.774 41.6591V51.2276H100.977V26.1754H104.287L104.747 28.8485C106.2 26.9225 108.16 25.9629 110.621 25.9629C112.259 25.9629 113.726 26.333 115.021 27.0733L115.014 27.0801ZM113.801 39.5206C114.774 38.3965 115.261 36.9502 115.261 35.1955C115.261 33.4409 114.774 31.9672 113.801 30.8705C112.828 29.767 111.553 29.2186 109.983 29.2186C108.414 29.2186 107.146 29.767 106.186 30.8568C105.226 31.9466 104.74 33.3723 104.74 35.1339C104.74 36.8954 105.22 38.4033 106.186 39.5343C107.146 40.6584 108.414 41.2204 109.983 41.2204C111.553 41.2204 112.828 40.6584 113.801 39.5343V39.5206ZM134.933 42.6324C133.48 43.8182 131.615 44.4076 129.34 44.4076C127.557 44.4076 125.981 44.0238 124.624 43.263C123.267 42.5022 122.211 41.4123 121.478 40.0072C120.738 38.6021 120.367 36.9776 120.367 35.1544C120.367 33.3312 120.744 31.7204 121.491 30.3359C122.239 28.9513 123.301 27.8821 124.679 27.1144C126.05 26.3536 127.64 25.9697 129.449 25.9697C131.704 25.9697 133.541 26.5592 134.974 27.745C136.406 28.9308 137.297 30.5415 137.647 32.5841H133.74C133.48 31.5491 132.965 30.7334 132.191 30.1234C131.416 29.5134 130.464 29.2118 129.34 29.2118C127.811 29.2118 126.591 29.7601 125.666 30.8637C124.74 31.9672 124.274 33.3997 124.274 35.1544C124.274 36.9091 124.74 38.3828 125.666 39.5C126.591 40.6172 127.818 41.1724 129.34 41.1724C130.512 41.1724 131.485 40.864 132.26 40.2403C133.034 39.6165 133.541 38.7803 133.774 37.7248H137.647C137.297 39.8153 136.393 41.4466 134.94 42.6324H134.933ZM139.127 19.5678H142.925V44.202H139.127V19.5678ZM148.819 43.2698C147.421 42.509 146.345 41.426 145.584 40.0346C144.823 38.6364 144.439 37.0256 144.439 35.1955C144.439 33.3655 144.816 31.789 145.584 30.3907C146.345 28.9924 147.428 27.9095 148.819 27.1349C150.218 26.3604 151.815 25.9766 153.624 25.9766C155.434 25.9766 157.031 26.3604 158.429 27.1349C159.827 27.9095 160.903 28.9924 161.664 30.3907C162.425 31.789 162.809 33.386 162.809 35.1955C162.809 37.0051 162.425 38.6364 161.664 40.0346C160.903 41.4329 159.82 42.509 158.429 43.2698C157.031 44.0307 155.434 44.4145 153.624 44.4145C151.815 44.4145 150.218 44.0307 148.819 43.2698ZM157.476 39.5069C158.45 38.3896 158.936 36.9571 158.936 35.1955C158.936 33.434 158.45 32.0015 157.476 30.8842C156.503 29.7738 155.221 29.2118 153.624 29.2118C152.027 29.2118 150.752 29.767 149.786 30.8842C148.826 32.0015 148.34 33.434 148.34 35.1955C148.34 36.9571 148.819 38.3896 149.786 39.5069C150.745 40.6241 152.027 41.1793 153.624 41.1793C155.221 41.1793 156.503 40.6241 157.476 39.5069ZM180.438 26.1891V44.2089H177.093L176.668 41.9196C175.304 43.5851 173.454 44.4213 171.109 44.4213C168.998 44.4213 167.285 43.7633 165.969 42.4473C164.653 41.1313 163.995 39.0202 163.995 36.114V26.1891H167.792V35.7233C167.792 37.4849 168.141 38.8214 168.847 39.733C169.553 40.6447 170.595 41.1039 171.98 41.1039C173.433 41.1039 174.571 40.5693 175.393 39.5C176.216 38.4307 176.627 36.9708 176.627 35.1201V26.1822H180.424L180.438 26.1891ZM200 19.5747V44.2089H196.689L196.23 41.5014C194.798 43.448 192.837 44.4213 190.356 44.4213C188.711 44.4213 187.244 44.0512 185.956 43.311C184.667 42.5707 183.653 41.5014 182.926 40.11C182.2 38.7118 181.836 37.0805 181.836 35.2024C181.836 33.3243 182.206 31.7616 182.947 30.3633C183.687 28.965 184.701 27.8889 185.99 27.1281C187.279 26.3673 188.732 25.9834 190.356 25.9834C191.672 25.9834 192.817 26.2233 193.804 26.7031C194.791 27.1829 195.586 27.8478 196.196 28.6909V19.5747H200ZM194.791 39.5617C195.75 38.4582 196.23 37.0256 196.23 35.2709C196.23 33.5162 195.75 32.0015 194.791 30.8911C193.831 29.7807 192.563 29.2186 190.994 29.2186C189.424 29.2186 188.156 29.7738 187.196 30.8911C186.237 32.0083 185.75 33.4409 185.75 35.2024C185.75 36.9639 186.23 38.4307 187.196 39.548C188.156 40.6652 189.424 41.2204 190.994 41.2204C192.563 41.2204 193.831 40.6721 194.791 39.5686V39.5617Z" fill="white"/>
<path d="M35.6421 32.0289C35.6421 39.1573 29.9531 44.9217 22.7492 44.9217C15.5454 44.9217 9.9318 39.3013 9.9318 32.0289C9.9318 28.6086 11.2273 25.5859 13.2835 23.3171L4.57178 32.0289L0 27.4571L9.82899 17.7309C11.1587 16.4012 11.8441 14.6671 11.8441 12.7616V0.554199H18.2871V12.7616C18.2871 16.504 16.9574 19.6775 14.3596 22.2684L14.0718 22.5563C16.3405 20.4658 19.4386 19.2046 22.7492 19.2046C30.0627 19.2046 35.6421 25.0033 35.6421 32.022M29.8091 32.022C29.8091 28.2042 26.6425 25.1061 22.7492 25.1061C18.856 25.1061 15.7648 28.3482 15.7648 32.022C15.7648 35.6959 18.8629 39.0065 22.7492 39.0065C26.6356 39.0065 29.8091 35.7302 29.8091 32.022Z" fill="#FAC300"/>
</g>
</svg>
